<?xml version="1.0" encoding="UTF-8" standalone="no"?><!DOCTYPE svg PUBLIC "-//W3C//DTD SVG 1.1//EN" "http://www.w3.org/Graphics/SVG/1.1/DTD/svg11.dtd"><svg width="100%" height="100%" viewBox="0 0 266 112" version="1.1" xmlns="http://www.w3.org/2000/svg" xmlns:xlink="http://www.w3.org/1999/xlink" xml:space="preserve" xmlns:serif="http://www.serif.com/" style="fill-rule:evenodd;clip-rule:evenodd;stroke-linejoin:round;stroke-miterlimit:1.41421;"><g><g transform="matrix(0.375258,0,0,0.375258,-107.421,-34.9094)"><text x="282.737px" y="291.781px" style="font-family:'Montserrat-Medium', 'Montserrat';font-weight:500;font-size:121.48px;fill:#fff;">INTELLINET</text><text x="361.365px" y="390.483px" style="font-family:'Montserrat-Regular', 'Montserrat';font-size:60.74px;fill:#fff;">S<tspan x="422.834px 495.721px 551.845px 621.939px 680.796px 722.828px 795.716px 867.51px " y="390.483px 390.483px 390.483px 390.483px 390.483px 390.483px 390.483px 390.483px ">OLUTIONS</tspan></text></g><rect x="1.233" y="85.127" width="261.513" height="1.425" style="fill:#fff;"/><path d="M0.441,31.629c3.891,-4.868 8.919,-8.716 14.161,-12.157c13.598,-8.927 29.73,-13.584 45.987,-14.676c0.165,-0.011 0.33,-0.021 0.495,-0.032c17.379,-1.045 34.759,2.057 51.957,5.565c27.507,5.61 55.156,13.389 82.306,12.155c21.087,-0.958 42.071,-7.506 58.89,-20.049c0.947,-0.707 1.889,-1.426 2.808,-2.17l8.514,1.708c-5.585,5.743 -12.563,10.154 -19.757,14.002c-17.965,9.609 -38.532,14.013 -58.938,13.55c-35.427,-0.804 -69.808,-13.707 -105.237,-17.256c-13.552,-1.357 -27.35,-0.85 -40.377,2.782c-12.188,3.399 -24.06,9.314 -32.823,18.18l-7.986,-1.602Z" style="fill:#fff;"/></g></svg>